STARTFONT 2.1
COMMENT
COMMENT Converted from OpenType font "Q:\font stuff\winfont\Cornelius Maurits.ttf" by "otf2bdf 3.0".
COMMENT
FONT -FreeType-Cornelius-Medium-R-Normal--34-340-72-72-P-248-ISO10646-1
SIZE 34 72 72
FONTBOUNDINGBOX 25 21 0 0
STARTPROPERTIES 19
FOUNDRY "FreeType"
FAMILY_NAME "Cornelius"
WEIGHT_NAME "Medium"
SLANT "R"
SETWIDTH_NAME "Normal"
ADD_STYLE_NAME ""
PIXEL_SIZE 22
POINT_SIZE 340
RESOLUTION_X 72
RESOLUTION_Y 72
SPACING "P"
AVERAGE_WIDTH 248
CHARSET_REGISTRY "ISO10646"
CHARSET_ENCODING "1"
FONT_ASCENT 27
FONT_DESCENT 5
COPYRIGHT "©1998 thomas francis cary marianfudge2@hotmail.com"
_OTF_FONTFILE "Q:\font stuff\winfont\Cornelius Maurits.ttf"
_OTF_PSNAME "CorneliusMaurits"
ENDPROPERTIES
CHARS 64
STARTCHAR 0020
ENCODING 32
SWIDTH 500 0
DWIDTH 17 0
BBX 0 0 0 0
BITMAP
ENDCHAR
STARTCHAR 002E
ENCODING 46
SWIDTH 235 0
DWIDTH 8 0
BBX 8 8 0 0
BITMAP
FF
FF
C3
C3
C3
C3
FF
FF
ENDCHAR
STARTCHAR 0030
ENCODING 48
SWIDTH 735 0
DWIDTH 25 0
BBX 25 21 0 0
BITMAP
FFFFFF80
FFFFFF80
C0000180
C0000180
C0000180
C0000180
C0000180
C0000180
C0000180
C0000180
C07F0180
C07F0180
C0000180
C0000180
C0000180
C0000180
C0000180
C0000180
C0000180
FFFFFF80
FFFFFF80
ENDCHAR
STARTCHAR 0031
ENCODING 49
SWIDTH 735 0
DWIDTH 25 0
BBX 25 21 0 0
BITMAP
FFFFFF80
FFFFFF80
C000FF80
C000FF80
FF80FF80
FF80FF80
FF80FF80
FF80FF80
FF80FF80
FF80FF80
FF80FF80
FF80FF80
FF80FF80
FF80FF80
FF80FF80
FF80FF80
FF80FF80
C0000180
C0000180
FFFFFF80
FFFFFF80
ENDCHAR
STARTCHAR 0032
ENCODING 50
SWIDTH 735 0
DWIDTH 25 0
BBX 25 21 0 0
BITMAP
FFFFFF80
FFFFFF80
C0000180
C0000180
C0000180
C0000180
C0000180
FFFFC180
FFFFC180
C0000180
C0000180
C0000180
C0000180
C000FF80
C000FF80
C0000180
C0000180
C0000180
C0000180
FFFFFF80
FFFFFF80
ENDCHAR
STARTCHAR 0033
ENCODING 51
SWIDTH 735 0
DWIDTH 25 0
BBX 25 21 0 0
BITMAP
FFFFFF80
FFFFFF80
C0000180
C0000180
C0000180
C0000180
C0000180
FF800180
FF800180
C0000180
C0000180
C0000180
FF800180
FF800180
C0000180
C0000180
C0000180
C0000180
C0000180
FFFFFF80
FFFFFF80
ENDCHAR
STARTCHAR 0034
ENCODING 52
SWIDTH 735 0
DWIDTH 25 0
BBX 25 21 0 0
BITMAP
FFFFFF80
FFFFFF80
C00C0180
C00C0180
C00C0180
C00C0180
C00C0180
C00C0180
C00C0180
C0000180
C0000180
C0000180
FFFFC180
FFFFC180
FFFFC180
FFFFC180
FFFFC180
FFFFC180
FFFFC180
FFFFFF80
FFFFFF80
ENDCHAR
STARTCHAR 0035
ENCODING 53
SWIDTH 735 0
DWIDTH 25 0
BBX 25 21 0 0
BITMAP
FFFFFF80
FFFFFF80
C0000180
C0000180
C0000180
C0000180
C0000180
C0007F80
C0007F80
C0000180
C0000180
C0000180
C0000180
C0000180
FFFFC180
FFFFC180
C0000180
C0000180
C0000180
FFFFFF80
FFFFFF80
ENDCHAR
STARTCHAR 0036
ENCODING 54
SWIDTH 735 0
DWIDTH 25 0
BBX 25 21 0 0
BITMAP
FFFFFF80
FFFFFF80
C0000180
C0000180
C0000180
C0000180
C0000180
C0007F80
C0007F80
C0000180
C0000180
C0000180
C03F8180
C03F8180
C0000180
C0000180
C0000180
C0000180
C0000180
FFFFFF80
FFFFFF80
ENDCHAR
STARTCHAR 0037
ENCODING 55
SWIDTH 735 0
DWIDTH 25 0
BBX 25 21 0 0
BITMAP
FFFFFF80
FFFFFF80
C0000180
C0000180
C0000180
C0000180
FF800180
FF800180
FF800180
FF800180
FF800180
FF800180
FF800180
FF800180
FF800180
FF800180
FF800180
FF800180
FF800180
FFFFFF80
FFFFFF80
ENDCHAR
STARTCHAR 0038
ENCODING 56
SWIDTH 735 0
DWIDTH 25 0
BBX 25 21 0 0
BITMAP
FFFFFF80
FFFFFF80
C0000180
C0000180
C0000180
C0000180
C0000180
C07F0180
C07F0180
C0000180
C0000180
C0000180
C07F0180
C07F0180
C0000180
C0000180
C0000180
C0000180
C0000180
FFFFFF80
FFFFFF80
ENDCHAR
STARTCHAR 0039
ENCODING 57
SWIDTH 735 0
DWIDTH 25 0
BBX 25 21 0 0
BITMAP
FFFFFF80
FFFFFF80
C0000180
C0000180
C00C0180
C00C0180
C00C0180
C00C0180
C00C0180
C00C0180
C00C0180
C0000180
FFFFC180
FFFFC180
FFFFC180
FFFFC180
FFFFC180
FFFFC180
FFFFC180
FFFFFF80
FFFFFF80
ENDCHAR
STARTCHAR 0041
ENCODING 65
SWIDTH 735 0
DWIDTH 25 0
BBX 25 21 0 0
BITMAP
FFFFFF80
FFFFFF80
C0000180
C0000180
C0000180
C0000180
C07F0180
C07F0180
C0000180
C0000180
C0000180
C0000180
C0180180
C0180180
C0180180
C0180180
C0180180
C0180180
C0180180
FFFFFF80
FFFFFF80
ENDCHAR
STARTCHAR 0042
ENCODING 66
SWIDTH 735 0
DWIDTH 25 0
BBX 25 21 0 0
BITMAP
FFFFFF80
FFFFFF80
C0000180
C0000180
C0000180
C0000180
C07F0180
C07F0180
C0000180
C0007F80
C0007F80
C0000180
C07F0180
C07F0180
C0000180
C0000180
C0000180
C0000180
C0000180
FFFFFF80
FFFFFF80
ENDCHAR
STARTCHAR 0043
ENCODING 67
SWIDTH 735 0
DWIDTH 25 0
BBX 25 21 0 0
BITMAP
FFFFFF80
FFFFFF80
C0000180
C0000180
C0000180
C0000180
C0000180
C0000180
C0000180
C0007F80
C0007F80
C0000180
C0000180
C0000180
C0000180
C0000180
C0000180
C0000180
C0000180
FFFFFF80
FFFFFF80
ENDCHAR
STARTCHAR 0044
ENCODING 68
SWIDTH 735 0
DWIDTH 25 0
BBX 25 21 0 0
BITMAP
FFFFFF80
FFFFFF80
C0000180
C0000180
C0000180
C0000180
C0000180
C0300180
C0300180
C0300180
C0300180
C0300180
C0300180
C0300180
C0000180
C0000180
C0000180
C0000180
C0000180
FFFFFF80
FFFFFF80
ENDCHAR
STARTCHAR 0045
ENCODING 69
SWIDTH 735 0
DWIDTH 25 0
BBX 25 21 0 0
BITMAP
FFFFFF80
FFFFFF80
C0000180
C0000180
C0000180
C0000180
C0000180
C0007F80
C0007F80
C0000180
C0000180
C0000180
C0007F80
C0007F80
C0000180
C0000180
C0000180
C0000180
C0000180
FFFFFF80
FFFFFF80
ENDCHAR
STARTCHAR 0046
ENCODING 70
SWIDTH 735 0
DWIDTH 25 0
BBX 25 21 0 0
BITMAP
FFFFFF80
FFFFFF80
C0000180
C0000180
C0000180
C0000180
C0000180
C0007F80
C0007F80
C0000180
C0000180
C0000180
C0FFFF80
C0FFFF80
C0FFFF80
C0FFFF80
C0FFFF80
C0FFFF80
C0FFFF80
FFFFFF80
FFFFFF80
ENDCHAR
STARTCHAR 0047
ENCODING 71
SWIDTH 735 0
DWIDTH 25 0
BBX 25 21 0 0
BITMAP
FFFFFF80
FFFFFF80
C0000180
C0000180
C0000180
C0000180
C0000180
C0000180
C0000180
C03FFF80
C03FFF80
C0300180
C0300180
C0300180
C03FE180
C03FE180
C0000180
C0000180
C0000180
FFFFFF80
FFFFFF80
ENDCHAR
STARTCHAR 0048
ENCODING 72
SWIDTH 735 0
DWIDTH 25 0
BBX 25 21 0 0
BITMAP
FFFFFF80
FFFFFF80
C0180180
C0180180
C0180180
C0180180
C0180180
C0180180
C0180180
C0000180
C0000180
C0000180
C0180180
C0180180
C0180180
C0180180
C0180180
C0180180
C0180180
FFFFFF80
FFFFFF80
ENDCHAR
STARTCHAR 0049
ENCODING 73
SWIDTH 735 0
DWIDTH 25 0
BBX 25 21 0 0
BITMAP
FFFFFF80
FFFFFF80
C0000180
C0000180
C0000180
C0000180
FF80FF80
FF80FF80
FF80FF80
FF80FF80
FF80FF80
FF80FF80
FF80FF80
FF80FF80
FF80FF80
FF80FF80
C0000180
C0000180
C0000180
FFFFFF80
FFFFFF80
ENDCHAR
STARTCHAR 004A
ENCODING 74
SWIDTH 735 0
DWIDTH 25 0
BBX 25 21 0 0
BITMAP
FFFFFF80
FFFFFF80
C0000180
C0000180
C0000180
FFFFC180
FFFFC180
FFFFC180
FFFFC180
FFFFC180
FFFFC180
FFFFC180
C01FC180
C0000180
C0000180
C0000180
C0000180
C0000180
C0000180
FFFFFF80
FFFFFF80
ENDCHAR
STARTCHAR 004B
ENCODING 75
SWIDTH 735 0
DWIDTH 25 0
BBX 25 21 0 0
BITMAP
FFFFFF80
FFFFFF80
C0180180
C0180180
C0180180
C0180180
C0180180
C0180180
C0180180
C0007F80
C0007F80
C0000180
C0180180
C0180180
C0180180
C0180180
C0180180
C0180180
C0180180
FFFFFF80
FFFFFF80
ENDCHAR
STARTCHAR 004C
ENCODING 76
SWIDTH 735 0
DWIDTH 25 0
BBX 25 21 0 0
BITMAP
FFFFFF80
FFFFFF80
C0FFFF80
C0FFFF80
C0FFFF80
C0FFFF80
C0FFFF80
C0FFFF80
C0FFFF80
C0FFFF80
C0FFFF80
C0FFFF80
C0FFFF80
C0000180
C0000180
C0000180
C0000180
C0000180
C0000180
FFFFFF80
FFFFFF80
ENDCHAR
STARTCHAR 004D
ENCODING 77
SWIDTH 735 0
DWIDTH 25 0
BBX 25 21 0 0
BITMAP
FFFFFF80
FFFFFF80
C0180180
C0180180
C0180180
C0180180
C0180180
C0180180
C0180180
C0000180
C0000180
C0000180
C300C180
C300C180
C300C180
C300C180
C300C180
C300C180
C300C180
FFFFFF80
FFFFFF80
ENDCHAR
STARTCHAR 004E
ENCODING 78
SWIDTH 735 0
DWIDTH 25 0
BBX 25 21 0 0
BITMAP
FFFFFF80
FFFFFF80
C0030180
C0030180
C0030180
C0030180
C0030180
C0030180
C0030180
C0000180
C0000180
C0000180
C0C00180
C0C00180
C0C00180
C0C00180
C0C00180
C0C00180
C0C00180
FFFFFF80
FFFFFF80
ENDCHAR
STARTCHAR 004F
ENCODING 79
SWIDTH 735 0
DWIDTH 25 0
BBX 25 21 0 0
BITMAP
FFFFFF80
FFFFFF80
C0000180
C0000180
C0000180
C0000180
C0000180
C00C0180
C00C0180
C00C0180
C00C0180
C00C0180
C00C0180
C00C0180
C0000180
C0000180
C0000180
C0000180
C0000180
FFFFFF80
FFFFFF80
ENDCHAR
STARTCHAR 0050
ENCODING 80
SWIDTH 735 0
DWIDTH 25 0
BBX 25 21 0 0
BITMAP
FFFFFF80
FFFFFF80
C0000180
C0000180
C0000180
C0000180
C07F0180
C07F0180
C0000180
C0000180
C0000180
C0000180
C0FFFF80
C0FFFF80
C0FFFF80
C0FFFF80
C0FFFF80
C0FFFF80
C0FFFF80
FFFFFF80
FFFFFF80
ENDCHAR
STARTCHAR 0051
ENCODING 81
SWIDTH 735 0
DWIDTH 25 0
BBX 25 21 0 0
BITMAP
FFFFFF80
FFFFFF80
C0000180
C0000180
C0000180
C0000180
C0000180
C00C0180
C00C0180
C00C0180
C00C0180
C00C0180
C00C3180
C00C3180
C0003180
C0003180
C0003180
C0003180
C0003180
FFFFFF80
FFFFFF80
ENDCHAR
STARTCHAR 0052
ENCODING 82
SWIDTH 735 0
DWIDTH 25 0
BBX 25 21 0 0
BITMAP
FFFFFF80
FFFFFF80
C0000180
C0000180
C0000180
C0000180
C07F0180
C07F0180
C0000180
C0007F80
C0007F80
C0000180
C07C0180
C07C0180
C07C0180
C07C0180
C07C0180
C07C0180
C07C0180
FFFFFF80
FFFFFF80
ENDCHAR
STARTCHAR 0053
ENCODING 83
SWIDTH 735 0
DWIDTH 25 0
BBX 25 21 0 0
BITMAP
FFFFFF80
FFFFFF80
C0000180
C0000180
C0000180
C0000180
C0000180
C0007F80
C0007F80
C0000180
C0000180
C0000180
FF800180
FF800180
C0000180
C0000180
C0000180
C0000180
C0000180
FFFFFF80
FFFFFF80
ENDCHAR
STARTCHAR 0054
ENCODING 84
SWIDTH 735 0
DWIDTH 25 0
BBX 25 21 0 0
BITMAP
FFFFFF80
FFFFFF80
C0000180
C0000180
C0000180
C0000180
FF80FF80
FF80FF80
FF80FF80
FF80FF80
FF80FF80
FF80FF80
FF80FF80
FF80FF80
FF80FF80
FF80FF80
FF80FF80
FF80FF80
FF80FF80
FFFFFF80
FFFFFF80
ENDCHAR
STARTCHAR 0055
ENCODING 85
SWIDTH 735 0
DWIDTH 25 0
BBX 25 21 0 0
BITMAP
FFFFFF80
FFFFFF80
C0180180
C0180180
C0180180
C0180180
C0180180
C0180180
C0180180
C0000180
C0000180
C0000180
C0000180
C0000180
C0000180
C0000180
C0000180
C0000180
C0000180
FFFFFF80
FFFFFF80
ENDCHAR
STARTCHAR 0056
ENCODING 86
SWIDTH 735 0
DWIDTH 25 0
BBX 25 21 0 0
BITMAP
FFFFFF80
FFFFFF80
C0180180
C0180180
C0180180
C0180180
C0180180
C0180180
C0180180
C0000180
C0000180
C0000180
C0000180
C0000180
C0000180
C0000180
C0000180
FF80FF80
FF80FF80
FFFFFF80
FFFFFF80
ENDCHAR
STARTCHAR 0057
ENCODING 87
SWIDTH 735 0
DWIDTH 25 0
BBX 25 21 0 0
BITMAP
FFFFFF80
FFFFFF80
C300C180
C300C180
C300C180
C300C180
C300C180
C300C180
C300C180
C0000180
C0000180
C0000180
C0180180
C0180180
C0180180
C0180180
C0180180
C0180180
C0180180
FFFFFF80
FFFFFF80
ENDCHAR
STARTCHAR 0058
ENCODING 88
SWIDTH 735 0
DWIDTH 25 0
BBX 25 21 0 0
BITMAP
FFFFFF80
FFFFFF80
C0180180
C0180180
C0180180
C0180180
C0180180
C0180180
C0180180
FF807F80
FF807F80
C0000180
C0180180
C0180180
C0180180
C0180180
C0180180
C0180180
C0180180
FFFFFF80
FFFFFF80
ENDCHAR
STARTCHAR 0059
ENCODING 89
SWIDTH 735 0
DWIDTH 25 0
BBX 25 21 0 0
BITMAP
FFFFFF80
FFFFFF80
C0180180
C0180180
C0180180
C0180180
C0180180
C0180180
C0180180
C0000180
C0000180
C0000180
FF80FF80
FF80FF80
FF80FF80
FF80FF80
FF80FF80
FF80FF80
FF80FF80
FFFFFF80
FFFFFF80
ENDCHAR
STARTCHAR 005A
ENCODING 90
SWIDTH 735 0
DWIDTH 25 0
BBX 25 21 0 0
BITMAP
FFFFFF80
FFFFFF80
C0000180
C0000180
C0000180
C0000180
C0000180
FF800180
FF800180
C0000180
C0000180
C0000180
C0007F80
C0007F80
C0000180
C0000180
C0000180
C0000180
C0000180
FFFFFF80
FFFFFF80
ENDCHAR
STARTCHAR 0061
ENCODING 97
SWIDTH 735 0
DWIDTH 25 0
BBX 25 21 0 0
BITMAP
FFFFFF80
FFFFFF80
C0000180
C0000180
C0000180
C0000180
C07F0180
C07F0180
C0000180
C0000180
C0000180
C0000180
C0180180
C0180180
C0180180
C0180180
C0180180
C0180180
C0180180
FFFFFF80
FFFFFF80
ENDCHAR
STARTCHAR 0062
ENCODING 98
SWIDTH 735 0
DWIDTH 25 0
BBX 25 21 0 0
BITMAP
FFFFFF80
FFFFFF80
C0000180
C0000180
C0000180
C0000180
C07F0180
C07F0180
C0000180
C0007F80
C0007F80
C0000180
C07F0180
C07F0180
C0000180
C0000180
C0000180
C0000180
C0000180
FFFFFF80
FFFFFF80
ENDCHAR
STARTCHAR 0063
ENCODING 99
SWIDTH 735 0
DWIDTH 25 0
BBX 25 21 0 0
BITMAP
FFFFFF80
FFFFFF80
C0000180
C0000180
C0000180
C0000180
C0000180
C0000180
C0000180
C0007F80
C0007F80
C0000180
C0000180
C0000180
C0000180
C0000180
C0000180
C0000180
C0000180
FFFFFF80
FFFFFF80
ENDCHAR
STARTCHAR 0064
ENCODING 100
SWIDTH 735 0
DWIDTH 25 0
BBX 25 21 0 0
BITMAP
FFFFFF80
FFFFFF80
C0000180
C0000180
C0000180
C0000180
C0000180
C0300180
C0300180
C0300180
C0300180
C0300180
C0300180
C0300180
C0000180
C0000180
C0000180
C0000180
C0000180
FFFFFF80
FFFFFF80
ENDCHAR
STARTCHAR 0065
ENCODING 101
SWIDTH 735 0
DWIDTH 25 0
BBX 25 21 0 0
BITMAP
FFFFFF80
FFFFFF80
C0000180
C0000180
C0000180
C0000180
C0000180
C0007F80
C0007F80
C0000180
C0000180
C0000180
C0007F80
C0007F80
C0000180
C0000180
C0000180
C0000180
C0000180
FFFFFF80
FFFFFF80
ENDCHAR
STARTCHAR 0066
ENCODING 102
SWIDTH 735 0
DWIDTH 25 0
BBX 25 21 0 0
BITMAP
FFFFFF80
FFFFFF80
C0000180
C0000180
C0000180
C0000180
C0000180
C0007F80
C0007F80
C0000180
C0000180
C0000180
C0FFFF80
C0FFFF80
C0FFFF80
C0FFFF80
C0FFFF80
C0FFFF80
C0FFFF80
FFFFFF80
FFFFFF80
ENDCHAR
STARTCHAR 0067
ENCODING 103
SWIDTH 735 0
DWIDTH 25 0
BBX 25 21 0 0
BITMAP
FFFFFF80
FFFFFF80
C0000180
C0000180
C0000180
C0000180
C0000180
C0000180
C0000180
C0007F80
C0007F80
C0000180
C0000180
C0000180
C00FE180
C00FE180
C0000180
C0000180
C0000180
FFFFFF80
FFFFFF80
ENDCHAR
STARTCHAR 0068
ENCODING 104
SWIDTH 735 0
DWIDTH 25 0
BBX 25 21 0 0
BITMAP
FFFFFF80
FFFFFF80
C0180180
C0180180
C0180180
C0180180
C0180180
C0180180
C0180180
C0000180
C0000180
C0000180
C0180180
C0180180
C0180180
C0180180
C0180180
C0180180
C0180180
FFFFFF80
FFFFFF80
ENDCHAR
STARTCHAR 0069
ENCODING 105
SWIDTH 735 0
DWIDTH 25 0
BBX 25 21 0 0
BITMAP
FFFFFF80
FFFFFF80
C0000180
C0000180
C0000180
C0000180
FF80FF80
FF80FF80
FF80FF80
FF80FF80
FF80FF80
FF80FF80
FF80FF80
FF80FF80
FF80FF80
FF80FF80
FF80FF80
C0000180
C0000180
FFFFFF80
FFFFFF80
ENDCHAR
STARTCHAR 006A
ENCODING 106
SWIDTH 735 0
DWIDTH 25 0
BBX 25 21 0 0
BITMAP
FFFFFF80
FFFFFF80
C0000180
C0000180
C0000180
FFFFC180
FFFFC180
FFFFC180
FFFFC180
FFFFC180
FFFFC180
FFFFC180
C01FC180
C0000180
C0000180
C0000180
C0000180
C0000180
C0000180
FFFFFF80
FFFFFF80
ENDCHAR
STARTCHAR 006B
ENCODING 107
SWIDTH 735 0
DWIDTH 25 0
BBX 25 21 0 0
BITMAP
FFFFFF80
FFFFFF80
C0180180
C0180180
C0180180
C0180180
C0180180
C0180180
C0180180
C0007F80
C0007F80
C0000180
C0180180
C0180180
C0180180
C0180180
C0180180
C0180180
C0180180
FFFFFF80
FFFFFF80
ENDCHAR
STARTCHAR 006C
ENCODING 108
SWIDTH 735 0
DWIDTH 25 0
BBX 25 21 0 0
BITMAP
FFFFFF80
FFFFFF80
C0FFFF80
C0FFFF80
C0FFFF80
C0FFFF80
C0FFFF80
C0FFFF80
C0FFFF80
C0FFFF80
C0FFFF80
C0FFFF80
C0FFFF80
C0000180
C0000180
C0000180
C0000180
C0000180
C0000180
FFFFFF80
FFFFFF80
ENDCHAR
STARTCHAR 006D
ENCODING 109
SWIDTH 735 0
DWIDTH 25 0
BBX 25 21 0 0
BITMAP
FFFFFF80
FFFFFF80
C0180180
C0180180
C0180180
C0180180
C0180180
C0180180
C0180180
C0000180
C0000180
C0000180
C300C180
C300C180
C300C180
C300C180
C300C180
C300C180
C300C180
FFFFFF80
FFFFFF80
ENDCHAR
STARTCHAR 006E
ENCODING 110
SWIDTH 735 0
DWIDTH 25 0
BBX 25 21 0 0
BITMAP
FFFFFF80
FFFFFF80
C0030180
C0030180
C0030180
C0030180
C0030180
C0030180
C0030180
C0000180
C0000180
C0000180
C0C00180
C0C00180
C0C00180
C0C00180
C0C00180
C0C00180
C0C00180
FFFFFF80
FFFFFF80
ENDCHAR
STARTCHAR 006F
ENCODING 111
SWIDTH 735 0
DWIDTH 25 0
BBX 25 21 0 0
BITMAP
FFFFFF80
FFFFFF80
C0000180
C0000180
C0000180
C0000180
C0000180
C00C0180
C00C0180
C00C0180
C00C0180
C00C0180
C00C0180
C00C0180
C0000180
C0000180
C0000180
C0000180
C0000180
FFFFFF80
FFFFFF80
ENDCHAR
STARTCHAR 0070
ENCODING 112
SWIDTH 735 0
DWIDTH 25 0
BBX 25 21 0 0
BITMAP
FFFFFF80
FFFFFF80
C0000180
C0000180
C0000180
C0000180
C07F0180
C07F0180
C0000180
C0000180
C0000180
C0000180
C0FFFF80
C0FFFF80
C0FFFF80
C0FFFF80
C0FFFF80
C0FFFF80
C0FFFF80
FFFFFF80
FFFFFF80
ENDCHAR
STARTCHAR 0071
ENCODING 113
SWIDTH 735 0
DWIDTH 25 0
BBX 25 21 0 0
BITMAP
FFFFFF80
FFFFFF80
C0000180
C0000180
C0000180
C0000180
C0000180
C00C0180
C00C0180
C00C0180
C00C0180
C00C0180
C00C3180
C00C3180
C0003180
C0003180
C0003180
C0003180
C0003180
FFFFFF80
FFFFFF80
ENDCHAR
STARTCHAR 0072
ENCODING 114
SWIDTH 735 0
DWIDTH 25 0
BBX 25 21 0 0
BITMAP
FFFFFF80
FFFFFF80
C0000180
C0000180
C0000180
C0000180
C07F0180
C07F0180
C0000180
C0007F80
C0007F80
C0000180
C07C0180
C07C0180
C07C0180
C07C0180
C07C0180
C07C0180
C07C0180
FFFFFF80
FFFFFF80
ENDCHAR
STARTCHAR 0073
ENCODING 115
SWIDTH 735 0
DWIDTH 25 0
BBX 25 21 0 0
BITMAP
FFFFFF80
FFFFFF80
C0000180
C0000180
C0000180
C0000180
C0000180
C0007F80
C0007F80
C0000180
C0000180
C0000180
FF800180
FF800180
C0000180
C0000180
C0000180
C0000180
C0000180
FFFFFF80
FFFFFF80
ENDCHAR
STARTCHAR 0074
ENCODING 116
SWIDTH 735 0
DWIDTH 25 0
BBX 25 21 0 0
BITMAP
FFFFFF80
FFFFFF80
C0000180
C0000180
C0000180
C0000180
FF80FF80
FF80FF80
FF80FF80
FF80FF80
FF80FF80
FF80FF80
FF80FF80
FF80FF80
FF80FF80
FF80FF80
FF80FF80
FF80FF80
FF80FF80
FFFFFF80
FFFFFF80
ENDCHAR
STARTCHAR 0075
ENCODING 117
SWIDTH 735 0
DWIDTH 25 0
BBX 25 21 0 0
BITMAP
FFFFFF80
FFFFFF80
C0180180
C0180180
C0180180
C0180180
C0180180
C0180180
C0180180
C0000180
C0000180
C0000180
C0000180
C0000180
C0000180
C0000180
C0000180
C0000180
C0000180
FFFFFF80
FFFFFF80
ENDCHAR
STARTCHAR 0076
ENCODING 118
SWIDTH 735 0
DWIDTH 25 0
BBX 25 21 0 0
BITMAP
FFFFFF80
FFFFFF80
C0180180
C0180180
C0180180
C0180180
C0180180
C0180180
C0180180
C0000180
C0000180
C0000180
C0000180
C0000180
C0000180
C0000180
C0000180
FF80FF80
FF80FF80
FFFFFF80
FFFFFF80
ENDCHAR
STARTCHAR 0077
ENCODING 119
SWIDTH 735 0
DWIDTH 25 0
BBX 25 21 0 0
BITMAP
FFFFFF80
FFFFFF80
C300C180
C300C180
C300C180
C300C180
C300C180
C300C180
C300C180
C0000180
C0000180
C0000180
C0180180
C0180180
C0180180
C0180180
C0180180
C0180180
C0180180
FFFFFF80
FFFFFF80
ENDCHAR
STARTCHAR 0078
ENCODING 120
SWIDTH 735 0
DWIDTH 25 0
BBX 25 21 0 0
BITMAP
FFFFFF80
FFFFFF80
C0180180
C0180180
C0180180
C0180180
C0180180
C0180180
C0180180
FF807F80
FF807F80
C0000180
C0180180
C0180180
C0180180
C0180180
C0180180
C0180180
C0180180
FFFFFF80
FFFFFF80
ENDCHAR
STARTCHAR 0079
ENCODING 121
SWIDTH 735 0
DWIDTH 25 0
BBX 25 21 0 0
BITMAP
FFFFFF80
FFFFFF80
C0180180
C0180180
C0180180
C0180180
C0180180
C0180180
C0180180
C0000180
C0000180
C0000180
FF80FF80
FF80FF80
FF80FF80
FF80FF80
FF80FF80
FF80FF80
FF80FF80
FFFFFF80
FFFFFF80
ENDCHAR
STARTCHAR 007A
ENCODING 122
SWIDTH 735 0
DWIDTH 25 0
BBX 25 21 0 0
BITMAP
FFFFFF80
FFFFFF80
C0000180
C0000180
C0000180
C0000180
C0000180
FF800180
FF800180
C0000180
C0000180
C0000180
C0007F80
C0007F80
C0000180
C0000180
C0000180
C0000180
C0000180
FFFFFF80
FFFFFF80
ENDCHAR
ENDFONT
